<svg xmlns="http://www.w3.org/2000/svg" viewBox="0 0 36.85 33.96"><title>Ativo 5</title><g id="Camada_2" data-name="Camada 2"><g id="Camada_1-2" data-name="Camada 1"><path d="M18.6,0C24.38,0,30.17.05,36,0,36.85,0,37,.17,37,1.06Q37,17,37,32.9C37,33.79,36.85,34,36,34Q18.6,33.9,1.23,34C.34,34,.17,33.79.17,32.9Q.23,17,.17,1.06C.17.17.34,0,1.23,0,7,.05,12.81,0,18.6,0Z" transform="translate(-0.17)" style="fill:#fff"/><path d="M2.19,17A16.38,16.38,0,0,1,18.89.44,16.44,16.44,0,0,1,35.34,17c0,9.33-7.38,16.53-16.92,16.51A16.41,16.41,0,0,1,2.19,17Z" transform="translate(-0.17)" style="fill:#59a04b"/><path d="M5.57,16.92A13.21,13.21,0,0,1,18.87,3.75,13.41,13.41,0,0,1,32,16.94,13.41,13.41,0,0,1,18.75,30.21,13.21,13.21,0,0,1,5.57,16.92Z" transform="translate(-0.17)" style="fill:#fff"/><path d="M22.46,15c0,.82,0,1.64,0,2.46.06,1.15.14,2-1.6,2s-1.64-.86-1.61-2c0-2,.09-4,0-5.95-.07-1.45.82-1.25,1.72-1.28s1.61,0,1.51,1.27S22.46,13.87,22.46,15Z" transform="translate(-0.17)" style="fill:#5fa250"/><path d="M18.2,15.4c0,.75,0,1.51,0,2.26.07,1.13,0,1.88-1.56,1.87s-1.63-.64-1.58-1.82a34.78,34.78,0,0,0,0-4.72c-.17-1.85,1.14-1.74,2.23-1.83,1.51-.11.79,1.12.88,1.77A16.41,16.41,0,0,1,18.2,15.4Z" transform="translate(-0.17)" style="fill:#59a04b"/><path d="M26.66,15.75c0,.69,0,1.38,0,2.06.09,1.11,0,1.73-1.48,1.72s-1.76-.48-1.68-1.78c.09-1.58,0-3.16,0-4.74,0-.62-.25-1.64.9-1.32.82.22,2.27-.33,2.22,1.38C26.64,14,26.66,14.85,26.66,15.75Z" transform="translate(-0.17)" style="fill:#5fa250"/><path d="M23,23.67a18.26,18.26,0,0,0-2.06,0c-1.25.14-1.65-.29-1.65-1.6s.59-1.45,1.63-1.4c1.31.06,2.62,0,3.93,0,1,0,2-.27,2,1.46s-.86,1.54-1.92,1.51C24.19,23.65,23.57,23.67,23,23.67Z" transform="translate(-0.17)" style="fill:#5aa14c"/><path d="M13.91,16c0,.62,0,1.24,0,1.85.11,1.12-.07,1.74-1.49,1.71s-1.68-.38-1.58-1.63,0-2.6,0-3.91c0-.56,0-1,.78-1.18,2-.61,2.24-.5,2.26,1.52C13.91,14.86,13.91,15.41,13.91,16Z" transform="translate(-0.17)" style="fill:#5aa14c"/></g></g></svg>